<?xml version="1.0" encoding="utf-8"?>
<!-- Generator: Adobe Illustrator 23.0.0, SVG Export Plug-In . SVG Version: 6.00 Build 0)  -->
<svg version="1.1" id="Layer_1" xmlns="http://www.w3.org/2000/svg" xmlns:xlink="http://www.w3.org/1999/xlink" x="0px" y="0px"
	 viewBox="0 0 597.8 133" style="enable-background:new 0 0 597.8 133;" xml:space="preserve">
<style type="text/css">
	.st0{fill:#97B63F;}
	.st1{fill:#ED1C24;}
	.st2{fill:#231F20;}
	.st3{enable-background:new    ;}
</style>
<title>logo NTV-01-02</title>
<path class="st0" d="M396,79.3c0-5.7-1.4-10.2-4.3-13.5c-3-3.4-7.4-5.1-13.1-5.1l-29.4,0v45.3h20.1l0-34.1c0-1,0.3-1.9,1-2.6
	c1.1-1.3,3.2-1.5,4.5-0.3c0.1,0.1,0.2,0.2,0.3,0.3c0.7,0.7,1,1.6,1,2.6l0,34.1h19.9L396,79.3L396,79.3z M336.6,53.5l-9.6-12
	l-0.3-0.3h-6l-0.3,0.3l-9.6,12l-1.3,1.6h8.9l0.3-0.3l5-6.2l5,6.2l0.3,0.3h8.9L336.6,53.5z M318,60.8c-5.3-0.2-10.3,2.3-13.3,6.6
	c-2.9,4.1-4.3,9.4-4.3,16c0,6.6,1.4,12,4.3,16c3,4.4,8,6.9,13.3,6.6h11.7c5.3,0.2,10.3-2.3,13.3-6.6c2.9-4.1,4.4-9.4,4.4-16
	c0-6.6-1.5-11.9-4.4-16c-3-4.4-8-6.9-13.3-6.6H318z M327.3,94.8c0,1-0.3,1.9-1,2.6c-1.2,1.3-3.2,1.4-4.5,0.2
	c-0.1-0.1-0.2-0.2-0.2-0.2c-0.7-0.7-1-1.7-1-2.6V72c0-1,0.3-1.9,1-2.6c1.1-1.3,3.1-1.5,4.4-0.4c0.1,0.1,0.3,0.2,0.4,0.4
	c0.7,0.7,1,1.6,1,2.6V94.8z M298.6,83.6c0-6.6-1.4-11.9-4.3-15.9c-3-4.3-8-6.8-13.2-6.6h-9.3V47.6h-20v58.5h20V72.2
	c0-1,0.3-1.9,1-2.6c0.6-0.7,1.5-1.1,2.4-1.1c0.9,0,1.8,0.4,2.4,1.1c0.7,0.7,1,1.6,1,2.6v33.9h20v-22c0-0.1,0-0.2,0-0.3V83.6z
	 M243.7,86.7V72.4h6.1V61h-6.1c0-4.9,0-9.4,0-13.4h-22v39.2c-0.1,4.8,1.7,9.5,4.9,13.1c3.4,3.9,8.3,6.1,13.4,6.2h0.4
	c0.2,0,0.3,0,0.4,0h9.2V93.5c-1.1,0-2.2-0.3-3.2-0.8C244.7,91.5,243.7,89.5,243.7,86.7 M180.2,60.8C175,60.5,170,63,167,67.3
	c-2.9,4-4.3,9.3-4.3,15.9c0,6.6,1.4,11.9,4.3,15.9c3,4.3,7.9,6.8,13.2,6.6h9.2v7.5c0.1,1.3-0.3,2.7-1.1,3.8
	c-0.9,1.3-2.6,1.6-3.9,0.8c-0.3-0.2-0.6-0.5-0.8-0.8c-0.8-1.1-1.1-2.4-1.1-3.8v-2.2h-17.4c0,3.6,1.4,7,3.8,9.7
	c2.5,3.1,6.3,5,10.3,5.1h0.4c0.1,0,0.3,0,0.4,0h12c0.1,0,0.3,0,0.4,0h0.4c4.8-0.1,9.2-2.4,12.1-6.2c3-3.7,4.5-8.3,4.4-13v-46H180.2z
	 M186,98.2c-0.9,0-1.8-0.4-2.4-1.1c-0.7-0.7-1-1.6-1-2.6V71.9c0-1,0.3-1.9,1-2.6c0.6-0.7,1.5-1.1,2.4-1.1c0.9,0,1.7,0.4,2.3,1
	c0.6,0.6,1,1.5,1.1,2.4c0,0.5,0,8.2,0,23c0,0.9-0.4,1.9-1,2.5C187.8,97.9,186.9,98.2,186,98.2 M160.9,79.3c0-5.7-1.4-10.2-4.3-13.5
	c-3-3.4-7.4-5.1-13.1-5.1l-29.4,0v45.3h20.1l0-34.1c0-1,0.3-1.9,1-2.6c1.1-1.3,3.2-1.5,4.5-0.3c0.1,0.1,0.2,0.2,0.3,0.3
	c0.7,0.7,1,1.6,1,2.6l0,34.1h19.9L160.9,79.3L160.9,79.3z M101.6,53.5l-9.6-12l-0.3-0.3h-6l-0.3,0.3l-9.6,12l-1.3,1.6h8.9l0.3-0.3
	l5-6.2l5,6.2l0.3,0.3h8.9L101.6,53.5z M83,60.8c-5.3-0.2-10.3,2.3-13.3,6.6c-2.9,4.1-4.3,9.4-4.3,16c0,6.6,1.4,12,4.3,16
	c3,4.4,8,6.9,13.3,6.6h11.7c5.3,0.2,10.3-2.3,13.3-6.6c2.9-4.1,4.4-9.4,4.4-16c0-6.6-1.5-11.9-4.4-16c-3-4.4-8-6.9-13.3-6.6H83z
	 M92.2,94.8c0,1-0.3,1.9-1,2.6c-0.6,0.7-1.5,1.1-2.4,1.1c-0.9,0-1.8-0.4-2.4-1.1c-0.7-0.7-1-1.7-1-2.6V72c0-1,0.3-1.9,1-2.6
	c0.6-0.7,1.5-1.1,2.4-1.1c0.9,0,1.8,0.4,2.4,1.1c0.7,0.7,1,1.6,1,2.6L92.2,94.8z M63.6,40.9v65.2H43.7L29.5,76.5v29.6h-19V40.9h19
	l15.1,29.4V40.9H63.6z"/>
<path class="st1" d="M580.9,82.2V64.6h7.5v-14h-7.5c0-6,0-11.5,0-16.5h-27.1v48.3c-0.1,5.9,2.1,11.7,6,16.1
	c4.2,4.8,10.2,7.5,16.5,7.6h0.5c0.2,0,0.3,0,0.5,0.1h11.3V90.6c-1.4,0-2.7-0.3-3.9-1C582.2,88.2,580.9,85.7,580.9,82.2 M538.9,41.4
	l-11.7-14.8l-0.3-0.4h-7.4l-0.3,0.4l-11.8,14.8l-1.6,2h10.9L517,43l6.2-7.7l6.1,7.7l0.3,0.4h11L538.9,41.4z M526.8,92.2
	c0,1.2-0.4,2.4-1.2,3.2c-0.7,0.8-1.8,1.3-2.9,1.3c-1.1,0-2.2-0.5-2.9-1.3c-0.8-0.9-1.2-2-1.2-3.2V76.9h33c0-7.6-1.8-13.9-5.5-18.8
	c-3.9-5.2-9.3-7.8-16.2-7.8h-14.5c-7,0-12.5,2.7-16.3,8.2c-3.6,5-5.3,11.6-5.3,19.7c0,8.1,1.8,14.7,5.3,19.7
	c3.9,5.5,9.3,8.2,16.3,8.2h14.5c6,0.1,11.8-2.6,15.6-7.2c3.8-4.3,5.9-9.9,5.8-15.7h-24.5V92.2z M522.7,59.6c1.1,0,2.2,0.5,2.9,1.4
	c0.8,0.9,1.2,2,1.2,3.2v2.6h-8.3v-2.6c0-1.2,0.4-2.3,1.2-3.2C520.5,60.1,521.5,59.6,522.7,59.6 M491.6,34.1H467v14h24.6V34.1z
	 M491.6,50.7H467v55.4h24.6V50.7z M464.8,25.9l-13.7,80.2h-38.4l-14.7-80.2h26.2l8.2,58.6c0.6-4.2,1.7-14.7,3.3-31.6
	c0.9-9,1.8-18,2.9-27L464.8,25.9z"/>
<rect x="511.6" y="112.6" class="st1" width="25.7" height="12.6"/>
<path class="st2" d="M18,18.3V30h-4.1V18.3h-3.1v-3.4h10.4v3.4H18z"/>
<path class="st2" d="M39.5,30l-0.8-2.2h-5.5L32.3,30h-4.4l6.4-15.1h3.2L43.9,30H39.5z M34.2,34.9v-3.1h3.4v3.1H34.2z M36,19.6
	L36,19.6l-1.7,5.2h3.3L36,19.6z"/>
<path class="st2" d="M63.6,22.1c-0.3,0.7-0.7,1.3-1.3,1.8c-0.6,0.5-1.4,0.9-2.2,1.1c-0.8,0.2-1.6,0.2-2.5,0.2h-1.8V30H52V14.9h5.2
	c0.5,0,0.9,0,1.3,0c0.4,0,0.9,0.1,1.3,0.1c0.8,0.1,1.7,0.4,2.3,0.9c1.2,1,1.9,2.4,1.9,4C64,20.7,63.9,21.5,63.6,22.1z M59.3,18.6
	c-0.6-0.2-1.2-0.3-1.9-0.3h-1.5v3.6h1.7c0.6,0,1.2-0.1,1.8-0.3c0.5-0.3,0.8-0.9,0.8-1.5C60.2,19.4,59.8,18.8,59.3,18.6z"/>
<path class="st2" d="M99,24.3c-0.4,1.7-1.5,3.3-2.9,4.3c-3.4,2.4-8,2.1-11.1-0.6c-3.1-2.8-3.3-7.6-0.5-10.7c0.1-0.2,0.3-0.3,0.5-0.5
	c1.6-1.5,3.7-2.3,5.9-2.2c2.8-0.1,5.5,1.2,7,3.5c0.5,0.7,0.9,1.6,1.1,2.5h-4.3c-0.5-1.6-2.1-2.7-3.9-2.6c-1.2,0-2.3,0.5-3.1,1.3
	c-0.8,0.8-1.2,1.9-1.2,3.1c0,1.2,0.4,2.3,1.2,3.1c1.6,1.7,4.2,1.8,5.9,0.3c0.4-0.4,0.8-0.9,1-1.5H99z"/>
<path class="st2" d="M116.9,30v-6h-5.2v6h-4.1V14.9h4.1v5.7h5.2v-5.7h4.1V30H116.9z"/>
<path class="st2" d="M131.2,14.2l-1-2l5.2-2.6l1.1,2.4L131.2,14.2z M130.3,30V14.9h4.1V30H130.3z"/>
<path class="st2" d="M167.1,27.9c-1.5,1.4-3.6,2.2-5.7,2.1h-6v-6h-1.4v-3.4h1.4v-5.7h5.4c0.7,0,1.4,0,2.1,0.1
	c0.6,0.1,1.2,0.2,1.8,0.4c1.2,0.4,2.3,1.2,3.1,2.3c1,1.4,1.5,3,1.5,4.7C169.2,24.4,168.5,26.4,167.1,27.9z M164.1,19.5
	c-0.8-0.8-1.8-1.3-3-1.2h-1.8v2.3h2.3v3.4h-2.3v2.6h1.7c1.1,0.1,2.2-0.3,3-1.2c0.7-0.9,1-1.9,0.9-3
	C165.1,21.4,164.8,20.3,164.1,19.5L164.1,19.5z"/>
<path class="st2" d="M177.8,30V14.9h4.1V30H177.8z"/>
<path class="st2" d="M196.6,13.6l-1-1.2l-1,1.2h-3.5l3.4-3.4h2.3l3.2,3.4H196.6z M191.2,30V14.9h8.9v3.4h-5v2.4h4.8V24h-4.8v2.6h5
	V30H191.2z M194,34.9v-3.1h3.4v3.1H194z"/>
<path class="st2" d="M219,30l-6.1-9.2l-0.1,0L213,30h-3.9V14.9h3.5l6.2,9.5l0,0l-0.2-9.5h3.9V30H219z"/>
<path class="st2" d="M248.9,18.3V30h-4.1V18.3h-3.1v-3.4H252v3.4H248.9z"/>
<path class="st2" d="M272.3,17.5V24c0,0.8-0.1,1.7-0.3,2.5c-0.2,0.8-0.7,1.5-1.3,2.1c-1.2,1.1-2.8,1.7-4.5,1.6
	c-0.8,0-1.7-0.1-2.5-0.4c-0.8-0.2-1.5-0.7-2.1-1.2c-0.6-0.6-1.1-1.3-1.3-2.2c-0.1-0.4-0.2-0.8-0.2-1.2c0-0.3-0.1-0.8-0.1-1.3v-9.1
	h4.1V24c0,0.3,0,0.7,0.1,1c0,0.3,0.1,0.6,0.3,0.9c0.3,0.6,1,1,1.7,0.9c0.7,0.1,1.4-0.3,1.7-0.9c0.1-0.3,0.2-0.6,0.3-0.9
	c0-0.3,0-0.6,0-1.1v-9.1h4.1v0.8c0.3-0.3,0.4-0.7,0.4-1h-0.8v-2.3h2.4v2.3c0,0.8-0.4,1.6-1,2.2C273,17.1,272.7,17.3,272.3,17.5z
	 M268.8,11.8c-0.1,0.1-0.2,0.3-0.3,0.4c-0.1,0.1-0.2,0.2-0.4,0.3l-0.4,0.3c-0.1,0.1-0.2,0.2-0.3,0.3c-0.2,0.2-0.3,0.4-0.3,0.7h-1.8
	c0-0.3,0.1-0.6,0.3-0.9c0.1-0.1,0.2-0.2,0.3-0.4c0.1-0.1,0.2-0.2,0.3-0.3l0.3-0.3c0.1-0.1,0.2-0.2,0.3-0.3c0.2-0.2,0.3-0.4,0.3-0.6
	c0-0.3-0.2-0.6-0.5-0.6c-0.1,0-0.1,0-0.2,0c-0.2,0-0.5,0.1-0.6,0.3c-0.1,0.2-0.1,0.4-0.1,0.7h-1.9c0,0,0-0.1,0-0.1v-0.1
	c0-0.7,0.3-1.4,0.8-1.8c0.5-0.5,1.2-0.7,2-0.7c0.9-0.1,1.8,0.4,2.3,1.2c0.2,0.3,0.3,0.6,0.3,0.9C269.1,11.2,269,11.5,268.8,11.8z"/>
<g class="st3">
	<path class="st2" d="M223.5,117.8H221v7.4h-1.7v-7.4h-2.5v-1.5h6.7V117.8z"/>
</g>
<g class="st3">
	<path class="st2" d="M222.9,121.9c0-0.7,0.1-1.2,0.4-1.8c0.2-0.5,0.6-0.9,1-1.2c0.4-0.3,1-0.4,1.5-0.4c0.8,0,1.5,0.3,2,0.8
		c0.5,0.5,0.8,1.3,0.9,2.2l0,0.5c0,1-0.3,1.8-0.8,2.4c-0.5,0.6-1.2,0.9-2.1,0.9c-0.9,0-1.6-0.3-2.1-0.9
		C223.2,123.8,222.9,123,222.9,121.9L222.9,121.9z M227.9,117.8l-1.2,0l-0.9-0.8l-0.9,0.8l-1.2,0l1.6-1.4h1L227.9,117.8z M224.6,122
		c0,0.6,0.1,1.1,0.3,1.4c0.2,0.3,0.5,0.5,0.9,0.5c0.4,0,0.7-0.2,0.9-0.5c0.2-0.3,0.3-0.9,0.3-1.6c0-0.6-0.1-1.1-0.3-1.4
		c-0.2-0.3-0.5-0.5-0.9-0.5c-0.4,0-0.7,0.2-0.9,0.5C224.7,120.7,224.6,121.3,224.6,122z M227.4,117l-0.1-0.7c0.2,0,0.4,0,0.5-0.1
		s0.2-0.1,0.2-0.2c0-0.2-0.2-0.4-0.7-0.4l0-0.7c0.5,0,1,0.1,1.2,0.3c0.3,0.2,0.4,0.4,0.4,0.7c0,0.2-0.1,0.4-0.2,0.5
		s-0.3,0.2-0.5,0.2l0,0.3H227.4z"/>
	<path class="st2" d="M231.3,118.6l0.1,0.8c0.4-0.6,1-0.9,1.8-0.9c0.6,0,1.1,0.2,1.5,0.6s0.5,1,0.5,1.8v4.3h-1.6V121
		c0-0.4-0.1-0.6-0.2-0.8c-0.2-0.2-0.4-0.3-0.8-0.3c-0.5,0-0.8,0.2-1,0.6v4.7h-1.6v-6.6H231.3z"/>
	<path class="st2" d="M236,121.9c0-1,0.2-1.8,0.7-2.5c0.4-0.6,1.1-0.9,1.8-0.9c0.7,0,1.2,0.2,1.6,0.7l0.1-0.6h1.5v6.4
		c0,0.6-0.1,1.1-0.4,1.5c-0.2,0.4-0.6,0.8-1,1c-0.4,0.2-1,0.3-1.6,0.3c-0.4,0-0.9-0.1-1.3-0.3c-0.4-0.2-0.8-0.4-1-0.7l0.7-1.1
		c0.4,0.5,0.9,0.7,1.5,0.7c0.4,0,0.8-0.1,1-0.4c0.2-0.3,0.4-0.6,0.4-1.1v-0.4c-0.4,0.5-0.9,0.7-1.5,0.7c-0.7,0-1.3-0.3-1.8-0.9
		C236.2,123.8,236,123,236,121.9L236,121.9z M237.7,122c0,0.6,0.1,1.1,0.3,1.4s0.5,0.5,0.9,0.5c0.5,0,0.9-0.2,1.1-0.6v-2.8
		c-0.2-0.4-0.6-0.6-1.1-0.6c-0.4,0-0.7,0.2-0.9,0.5C237.8,120.8,237.7,121.3,237.7,122z"/>
	<path class="st2" d="M247.4,119.3c0.4-0.6,1-0.8,1.6-0.8c1.3,0,2,0.8,2,2.5v4.2h-1.6V121c0-0.4-0.1-0.7-0.2-0.8
		c-0.2-0.2-0.4-0.3-0.8-0.3c-0.5,0-0.8,0.2-1,0.6v4.7h-1.6v-9.4h1.6V119.3z"/>
	<path class="st2" d="M252,121.9c0-0.7,0.1-1.2,0.4-1.8c0.2-0.5,0.6-0.9,1-1.2c0.4-0.3,1-0.4,1.5-0.4c0.8,0,1.5,0.3,2,0.8
		c0.5,0.5,0.8,1.3,0.9,2.2l0,0.5c0,1-0.3,1.8-0.8,2.4c-0.5,0.6-1.2,0.9-2.1,0.9c-0.9,0-1.6-0.3-2.1-0.9
		C252.3,123.8,252,123,252,121.9L252,121.9z M257.1,117.5L257.1,117.5l-1.3,0.1l-0.9-0.9l-0.9,0.9l-1.3,0v-0.1l1.7-1.7h1
		L257.1,117.5z M253.6,122c0,0.6,0.1,1.1,0.3,1.4c0.2,0.3,0.5,0.5,0.9,0.5c0.4,0,0.7-0.2,0.9-0.5c0.2-0.3,0.3-0.9,0.3-1.6
		c0-0.6-0.1-1.1-0.3-1.4c-0.2-0.3-0.5-0.5-0.9-0.5c-0.4,0-0.7,0.2-0.9,0.5C253.8,120.7,253.6,121.3,253.6,122z M254,126.7
		c0-0.2,0.1-0.4,0.3-0.6s0.4-0.2,0.7-0.2c0.3,0,0.5,0.1,0.7,0.2s0.3,0.4,0.3,0.6c0,0.2-0.1,0.4-0.3,0.6c-0.2,0.2-0.4,0.2-0.7,0.2
		s-0.5-0.1-0.7-0.2C254.1,127.1,254,126.9,254,126.7z"/>
	<path class="st2" d="M258.8,116.9c0-0.3,0.1-0.5,0.2-0.7c0.2-0.2,0.4-0.3,0.7-0.3c0.3,0,0.5,0.1,0.7,0.3c0.2,0.2,0.2,0.4,0.2,0.7
		c0,0.3-0.1,0.5-0.3,0.7s-0.4,0.3-0.7,0.3c-0.3,0-0.5-0.1-0.7-0.3C258.9,117.4,258.8,117.2,258.8,116.9z M260.6,125.2h-1.6v-6.6h1.6
		V125.2z"/>
	<path class="st2" d="M271.6,125.2h-1.7l-3.3-5.9v5.9h-1.7v-8.9h1.7l3.3,5.9v-5.9h1.7V125.2z"/>
	<path class="st2" d="M272.7,121.9c0-0.7,0.1-1.2,0.4-1.8c0.2-0.5,0.6-0.9,1-1.2c0.4-0.3,1-0.4,1.5-0.4c0.8,0,1.5,0.3,2,0.8
		c0.5,0.5,0.8,1.3,0.9,2.2l0,0.5c0,1-0.3,1.8-0.8,2.4c-0.5,0.6-1.2,0.9-2.1,0.9c-0.9,0-1.6-0.3-2.1-0.9
		C273,123.8,272.7,123,272.7,121.9L272.7,121.9z M277.8,117.5L277.8,117.5l-1.3,0.1l-0.9-0.9l-0.9,0.9l-1.3,0v-0.1l1.7-1.7h1
		L277.8,117.5z M274.4,122c0,0.6,0.1,1.1,0.3,1.4c0.2,0.3,0.5,0.5,0.9,0.5c0.4,0,0.7-0.2,0.9-0.5c0.2-0.3,0.3-0.9,0.3-1.6
		c0-0.6-0.1-1.1-0.3-1.4c-0.2-0.3-0.5-0.5-0.9-0.5c-0.4,0-0.7,0.2-0.9,0.5C274.5,120.7,274.4,121.3,274.4,122z"/>
	<path class="st2" d="M281.1,118.6l0.1,0.8c0.4-0.6,1-0.9,1.8-0.9c0.6,0,1.1,0.2,1.5,0.6s0.5,1,0.5,1.8v4.3h-1.6V121
		c0-0.4-0.1-0.6-0.2-0.8c-0.2-0.2-0.4-0.3-0.8-0.3c-0.5,0-0.8,0.2-1,0.6v4.7h-1.6v-6.6H281.1z"/>
	<path class="st2" d="M285.8,121.9c0-1,0.2-1.8,0.7-2.5c0.4-0.6,1.1-0.9,1.8-0.9c0.7,0,1.2,0.2,1.6,0.7l0.1-0.6h1.5v6.4
		c0,0.6-0.1,1.1-0.4,1.5c-0.2,0.4-0.6,0.8-1,1c-0.4,0.2-1,0.3-1.6,0.3c-0.4,0-0.9-0.1-1.3-0.3c-0.4-0.2-0.8-0.4-1-0.7l0.7-1.1
		c0.4,0.5,0.9,0.7,1.5,0.7c0.4,0,0.8-0.1,1-0.4c0.2-0.3,0.4-0.6,0.4-1.1v-0.4c-0.4,0.5-0.9,0.7-1.5,0.7c-0.7,0-1.3-0.3-1.8-0.9
		C286,123.8,285.8,123,285.8,121.9L285.8,121.9z M287.5,122c0,0.6,0.1,1.1,0.3,1.4s0.5,0.5,0.9,0.5c0.5,0,0.9-0.2,1.1-0.6v-2.8
		c-0.2-0.4-0.6-0.6-1.1-0.6c-0.4,0-0.7,0.2-0.9,0.5C287.6,120.8,287.5,121.3,287.5,122z"/>
	<path class="st2" d="M297.1,118.6l0.1,0.8c0.4-0.6,1-0.9,1.8-0.9c0.6,0,1.1,0.2,1.5,0.6s0.5,1,0.5,1.8v4.3h-1.6V121
		c0-0.4-0.1-0.6-0.2-0.8s-0.4-0.3-0.8-0.3c-0.5,0-0.8,0.2-1,0.6v4.7h-1.6v-6.6H297.1z"/>
	<path class="st2" d="M301.8,121.9c0-1,0.2-1.8,0.7-2.5c0.4-0.6,1.1-0.9,1.8-0.9c0.7,0,1.2,0.2,1.6,0.7l0.1-0.6h1.5v6.4
		c0,0.6-0.1,1.1-0.4,1.5c-0.2,0.4-0.6,0.8-1,1c-0.4,0.2-1,0.3-1.6,0.3c-0.4,0-0.9-0.1-1.3-0.3c-0.4-0.2-0.8-0.4-1-0.7l0.7-1.1
		c0.4,0.5,0.9,0.7,1.5,0.7c0.4,0,0.8-0.1,1-0.4c0.2-0.3,0.4-0.6,0.4-1.1v-0.4c-0.4,0.5-0.9,0.7-1.5,0.7c-0.7,0-1.3-0.3-1.8-0.9
		C302.1,123.8,301.8,123,301.8,121.9L301.8,121.9z M303.5,122c0,0.6,0.1,1.1,0.3,1.4s0.5,0.5,0.9,0.5c0.5,0,0.9-0.2,1.1-0.6v-2.8
		c-0.2-0.4-0.6-0.6-1.1-0.6c-0.4,0-0.7,0.2-0.9,0.5C303.6,120.8,303.5,121.3,303.5,122z"/>
	<path class="st2" d="M310.3,119.3c0.4-0.6,1-0.8,1.6-0.8c1.3,0,2,0.8,2,2.5v4.2h-1.6V121c0-0.4-0.1-0.7-0.2-0.8
		c-0.2-0.2-0.4-0.3-0.8-0.3c-0.5,0-0.8,0.2-1,0.6v4.7h-1.6v-9.4h1.6V119.3z"/>
	<path class="st2" d="M315.2,116.9c0-0.3,0.1-0.5,0.2-0.7c0.2-0.2,0.4-0.3,0.7-0.3c0.3,0,0.5,0.1,0.7,0.3c0.2,0.2,0.2,0.4,0.2,0.7
		c0,0.3-0.1,0.5-0.3,0.7c-0.2,0.2-0.4,0.3-0.7,0.3c-0.3,0-0.5-0.1-0.7-0.3S315.2,117.2,315.2,116.9z M316.9,125.2h-1.6v-6.6h1.6
		V125.2z"/>
	<path class="st2" d="M321.1,125.3c-0.9,0-1.6-0.3-2.2-0.9c-0.6-0.6-0.8-1.4-0.8-2.4v-0.2c0-0.7,0.1-1.3,0.4-1.8
		c0.2-0.5,0.6-0.9,1-1.2c0.4-0.3,0.9-0.4,1.5-0.4c0.8,0,1.5,0.3,2,0.9c0.5,0.6,0.7,1.4,0.7,2.4v0.7h-3.9c0.1,0.4,0.2,0.8,0.5,1
		c0.3,0.3,0.6,0.4,1,0.4c0.6,0,1.1-0.2,1.5-0.7l0.8,1c-0.2,0.4-0.6,0.7-1,0.9C322.1,125.2,321.6,125.3,321.1,125.3z M322.9,117.5
		L322.9,117.5l-1.3,0.1l-0.9-0.9l-0.9,0.9l-1.3,0v-0.1l1.7-1.7h1L322.9,117.5z M320.9,119.9c-0.3,0-0.6,0.1-0.8,0.4
		c-0.2,0.2-0.3,0.6-0.4,1h2.3v-0.1c0-0.4-0.1-0.7-0.3-0.9C321.5,120,321.2,119.9,320.9,119.9z M319.9,126.7c0-0.2,0.1-0.4,0.3-0.6
		c0.2-0.2,0.4-0.2,0.7-0.2c0.3,0,0.5,0.1,0.7,0.2c0.2,0.2,0.3,0.4,0.3,0.6c0,0.2-0.1,0.4-0.3,0.6s-0.4,0.2-0.7,0.2
		c-0.3,0-0.5-0.1-0.7-0.2C320,127.1,319.9,126.9,319.9,126.7z"/>
	<path class="st2" d="M330.1,122c0,1-0.2,1.8-0.6,2.4c-0.4,0.6-1,0.9-1.7,0.9c-0.6,0-1.1-0.2-1.5-0.7v3.1h-1.6v-9.2h1.5l0.1,0.6
		c0.4-0.5,0.9-0.8,1.6-0.8c0.8,0,1.3,0.3,1.8,0.9C329.8,120,330.1,120.8,330.1,122L330.1,122z M328.4,121.8c0-0.6-0.1-1.1-0.3-1.4
		s-0.5-0.5-0.9-0.5c-0.5,0-0.9,0.2-1.1,0.6v2.7c0.2,0.4,0.6,0.7,1.1,0.7C328,123.9,328.4,123.2,328.4,121.8z"/>
</g>
<g class="st3">
	<path class="st2" d="M336.3,123.1l1.1-4.5h1.7l-2.1,6.6h-1.6l-2.1-6.6h1.7L336.3,123.1z"/>
</g>
<g class="st3">
	<path class="st2" d="M343.3,125.2c-0.1-0.2-0.1-0.4-0.2-0.6c-0.4,0.5-0.9,0.7-1.5,0.7c-0.6,0-1.1-0.2-1.5-0.6
		c-0.4-0.4-0.6-0.8-0.6-1.4c0-0.7,0.2-1.2,0.7-1.6c0.5-0.4,1.2-0.6,2.1-0.6h0.8v-0.4c0-0.3-0.1-0.6-0.2-0.7
		c-0.1-0.2-0.4-0.3-0.7-0.3c-0.3,0-0.5,0.1-0.6,0.2c-0.2,0.1-0.2,0.3-0.2,0.6h-1.6c0-0.4,0.1-0.7,0.3-1.1c0.2-0.3,0.5-0.6,0.9-0.8
		s0.9-0.3,1.3-0.3c0.8,0,1.4,0.2,1.8,0.6c0.4,0.4,0.7,1,0.7,1.7v2.9c0,0.6,0.1,1.1,0.2,1.4v0.1H343.3z M343.1,117.7h-1.3l-1.6-1.9
		h1.8L343.1,117.7z M341.9,124c0.2,0,0.5-0.1,0.7-0.2c0.2-0.1,0.4-0.3,0.5-0.5v-1.1h-0.6c-0.8,0-1.3,0.3-1.3,0.9l0,0.1
		c0,0.2,0.1,0.4,0.2,0.5S341.7,124,341.9,124z"/>
	<path class="st2" d="M350.7,122.1v3.1H349v-8.9h3.2c0.6,0,1.2,0.1,1.6,0.4c0.5,0.2,0.8,0.6,1.1,1c0.3,0.5,0.4,1,0.4,1.5
		c0,0.9-0.3,1.6-0.8,2.1c-0.6,0.5-1.3,0.8-2.3,0.8H350.7z M350.7,120.6h1.5c0.4,0,0.8-0.1,1-0.3s0.4-0.6,0.4-1
		c0-0.4-0.1-0.8-0.4-1.1s-0.6-0.4-1-0.4h-1.6V120.6z"/>
	<path class="st2" d="M357.9,119.3c0.4-0.6,1-0.8,1.6-0.8c1.3,0,2,0.8,2,2.5v4.2H360V121c0-0.4-0.1-0.7-0.2-0.8
		c-0.2-0.2-0.4-0.3-0.8-0.3c-0.5,0-0.8,0.2-1,0.6v4.7h-1.6v-9.4h1.6V119.3z"/>
	<path class="st2" d="M366.4,125.2c-0.1-0.2-0.1-0.4-0.2-0.6c-0.4,0.5-0.9,0.7-1.5,0.7c-0.6,0-1.1-0.2-1.5-0.6
		c-0.4-0.4-0.6-0.8-0.6-1.4c0-0.7,0.2-1.2,0.7-1.6c0.5-0.4,1.2-0.6,2.1-0.6h0.8v-0.4c0-0.3-0.1-0.6-0.2-0.7
		c-0.1-0.2-0.4-0.3-0.7-0.3c-0.3,0-0.5,0.1-0.6,0.2c-0.2,0.1-0.2,0.3-0.2,0.6h-1.6c0-0.4,0.1-0.7,0.3-1.1c0.2-0.3,0.5-0.6,0.9-0.8
		s0.9-0.3,1.3-0.3c0.8,0,1.4,0.2,1.8,0.6c0.4,0.4,0.7,1,0.7,1.7v2.9c0,0.6,0.1,1.1,0.2,1.4v0.1H366.4z M365,124
		c0.2,0,0.5-0.1,0.7-0.2c0.2-0.1,0.4-0.3,0.5-0.5v-1.1h-0.6c-0.8,0-1.3,0.3-1.3,0.9l0,0.1c0,0.2,0.1,0.4,0.2,0.5S364.8,124,365,124z
		 M365.7,115.8h1.8l-1.6,1.9h-1.3L365.7,115.8z"/>
	<path class="st2" d="M371,117v1.6h1v1.3h-1v3.3c0,0.2,0,0.4,0.1,0.5c0.1,0.1,0.3,0.2,0.5,0.2c0.2,0,0.3,0,0.5,0v1.3
		c-0.3,0.1-0.7,0.2-1,0.2c-1.1,0-1.7-0.6-1.8-1.9v-3.6h-0.9v-1.3h0.9V117H371z"/>
	<path class="st2" d="M377.8,117v1.6h1v1.3h-1v3.3c0,0.2,0,0.4,0.1,0.5c0.1,0.1,0.3,0.2,0.5,0.2c0.2,0,0.3,0,0.5,0v1.3
		c-0.3,0.1-0.7,0.2-1,0.2c-1.1,0-1.7-0.6-1.8-1.9v-3.6h-0.9v-1.3h0.9V117H377.8z"/>
	<path class="st2" d="M383.2,120.3c-0.2,0-0.4,0-0.6,0c-0.6,0-1,0.2-1.2,0.7v4.3h-1.6v-6.6h1.5l0,0.8c0.3-0.6,0.8-0.9,1.4-0.9
		c0.2,0,0.4,0,0.5,0.1L383.2,120.3z"/>
	<path class="st2" d="M384,116.9c0-0.3,0.1-0.5,0.2-0.7c0.2-0.2,0.4-0.3,0.7-0.3c0.3,0,0.5,0.1,0.7,0.3c0.2,0.2,0.2,0.4,0.2,0.7
		c0,0.3-0.1,0.5-0.3,0.7c-0.2,0.2-0.4,0.3-0.7,0.3c-0.3,0-0.5-0.1-0.7-0.3S384,117.2,384,116.9z M385.8,125.2h-1.6v-6.6h1.6V125.2z"
		/>
	<path class="st2" d="M389.9,125.3c-0.9,0-1.6-0.3-2.2-0.9c-0.6-0.6-0.8-1.4-0.8-2.4v-0.2c0-0.7,0.1-1.3,0.4-1.8
		c0.2-0.5,0.6-0.9,1-1.2c0.4-0.3,0.9-0.4,1.5-0.4c0.8,0,1.5,0.3,2,0.9c0.5,0.6,0.7,1.4,0.7,2.4v0.7h-3.9c0.1,0.4,0.2,0.8,0.5,1
		c0.3,0.3,0.6,0.4,1,0.4c0.6,0,1.1-0.2,1.5-0.7l0.8,1c-0.2,0.4-0.6,0.7-1,0.9C390.9,125.2,390.4,125.3,389.9,125.3z M391.6,117.8
		l-1.2,0l-0.9-0.8l-0.9,0.8l-1.2,0l1.6-1.4h1L391.6,117.8z M389.7,119.9c-0.3,0-0.6,0.1-0.8,0.4c-0.2,0.2-0.3,0.6-0.4,1h2.3v-0.1
		c0-0.4-0.1-0.7-0.3-0.9C390.4,120,390.1,119.9,389.7,119.9z M391.1,117l-0.1-0.7c0.2,0,0.4,0,0.5-0.1c0.1-0.1,0.2-0.1,0.2-0.2
		c0-0.2-0.2-0.4-0.7-0.4l0-0.7c0.5,0,1,0.1,1.2,0.3c0.3,0.2,0.4,0.4,0.4,0.7c0,0.2-0.1,0.4-0.2,0.5c-0.1,0.1-0.3,0.2-0.5,0.2l0,0.3
		H391.1z"/>
	<path class="st2" d="M394.9,118.6l0.1,0.8c0.4-0.6,1-0.9,1.8-0.9c0.6,0,1.1,0.2,1.5,0.6s0.5,1,0.5,1.8v4.3H397V121
		c0-0.4-0.1-0.6-0.2-0.8c-0.2-0.2-0.4-0.3-0.8-0.3c-0.5,0-0.8,0.2-1,0.6v4.7h-1.6v-6.6H394.9z"/>
	<path class="st2" d="M409.6,125.2h-1.7l-3.3-5.9v5.9h-1.7v-8.9h1.7l3.3,5.9v-5.9h1.7V125.2z"/>
	<path class="st2" d="M410.7,121.9c0-0.7,0.1-1.2,0.4-1.8s0.6-0.9,1-1.2c0.4-0.3,1-0.4,1.5-0.4c0.8,0,1.5,0.3,2,0.8
		c0.5,0.5,0.8,1.3,0.9,2.2l0,0.5c0,1-0.3,1.8-0.8,2.4c-0.5,0.6-1.2,0.9-2.1,0.9c-0.9,0-1.6-0.3-2.1-0.9
		C411,123.8,410.7,123,410.7,121.9L410.7,121.9z M415.8,117.5L415.8,117.5l-1.3,0.1l-0.9-0.9l-0.9,0.9l-1.3,0v-0.1l1.7-1.7h1
		L415.8,117.5z M412.3,122c0,0.6,0.1,1.1,0.3,1.4c0.2,0.3,0.5,0.5,0.9,0.5c0.4,0,0.7-0.2,0.9-0.5s0.3-0.9,0.3-1.6
		c0-0.6-0.1-1.1-0.3-1.4c-0.2-0.3-0.5-0.5-0.9-0.5c-0.4,0-0.7,0.2-0.9,0.5C412.5,120.7,412.3,121.3,412.3,122z"/>
	<path class="st2" d="M419,118.6l0.1,0.8c0.4-0.6,1-0.9,1.8-0.9c0.6,0,1.1,0.2,1.5,0.6s0.5,1,0.5,1.8v4.3h-1.6V121
		c0-0.4-0.1-0.6-0.2-0.8c-0.2-0.2-0.4-0.3-0.8-0.3c-0.5,0-0.8,0.2-1,0.6v4.7h-1.6v-6.6H419z"/>
	<path class="st2" d="M423.8,121.9c0-1,0.2-1.8,0.7-2.5c0.4-0.6,1.1-0.9,1.8-0.9c0.7,0,1.2,0.2,1.6,0.7l0.1-0.6h1.5v6.4
		c0,0.6-0.1,1.1-0.4,1.5c-0.2,0.4-0.6,0.8-1,1c-0.4,0.2-1,0.3-1.6,0.3c-0.4,0-0.9-0.1-1.3-0.3c-0.4-0.2-0.8-0.4-1-0.7l0.7-1.1
		c0.4,0.5,0.9,0.7,1.5,0.7c0.4,0,0.8-0.1,1-0.4c0.2-0.3,0.4-0.6,0.4-1.1v-0.4c-0.4,0.5-0.9,0.7-1.5,0.7c-0.7,0-1.3-0.3-1.8-0.9
		C424,123.8,423.8,123,423.8,121.9L423.8,121.9z M425.4,122c0,0.6,0.1,1.1,0.3,1.4s0.5,0.5,0.9,0.5c0.5,0,0.9-0.2,1.1-0.6v-2.8
		c-0.2-0.4-0.6-0.6-1.1-0.6c-0.4,0-0.7,0.2-0.9,0.5C425.5,120.8,425.4,121.3,425.4,122z"/>
	<path class="st2" d="M435.5,117v1.6h1v1.3h-1v3.3c0,0.2,0,0.4,0.1,0.5c0.1,0.1,0.3,0.2,0.5,0.2c0.2,0,0.3,0,0.5,0v1.3
		c-0.3,0.1-0.7,0.2-1,0.2c-1.1,0-1.7-0.6-1.8-1.9v-3.6H433v-1.3h0.9V117H435.5z"/>
	<path class="st2" d="M439.1,119.3c0.4-0.6,1-0.8,1.6-0.8c1.3,0,2,0.8,2,2.5v4.2h-1.6V121c0-0.4-0.1-0.7-0.2-0.8
		c-0.2-0.2-0.4-0.3-0.8-0.3c-0.5,0-0.8,0.2-1,0.6v4.7h-1.6v-9.4h1.6V119.3z"/>
	<path class="st2" d="M443.7,121.9c0-0.7,0.1-1.2,0.4-1.8s0.6-0.9,1-1.2c0.4-0.3,1-0.4,1.5-0.4c0.8,0,1.5,0.3,2,0.8
		c0.5,0.5,0.8,1.3,0.9,2.2l0,0.5c0,1-0.3,1.8-0.8,2.4c-0.5,0.6-1.2,0.9-2.1,0.9c-0.9,0-1.6-0.3-2.1-0.9
		C444,123.8,443.7,123,443.7,121.9L443.7,121.9z M448.8,117.5L448.8,117.5l-1.3,0.1l-0.9-0.9l-0.9,0.9l-1.3,0v-0.1l1.7-1.7h1
		L448.8,117.5z M445.3,122c0,0.6,0.1,1.1,0.3,1.4c0.2,0.3,0.5,0.5,0.9,0.5c0.4,0,0.7-0.2,0.9-0.5s0.3-0.9,0.3-1.6
		c0-0.6-0.1-1.1-0.3-1.4c-0.2-0.3-0.5-0.5-0.9-0.5c-0.4,0-0.7,0.2-0.9,0.5C445.5,120.7,445.3,121.3,445.3,122z"/>
	<path class="st2" d="M452,118.6l0.1,0.8c0.4-0.6,1-0.9,1.8-0.9c0.6,0,1.1,0.2,1.5,0.6s0.5,1,0.5,1.8v4.3h-1.6V121
		c0-0.4-0.1-0.6-0.2-0.8c-0.2-0.2-0.4-0.3-0.8-0.3c-0.5,0-0.8,0.2-1,0.6v4.7h-1.6v-6.6H452z"/>
	<path class="st2" d="M463.1,123l1.9-6.7h1.9l-2.9,8.9h-1.8l-2.9-8.9h1.9L463.1,123z"/>
	<path class="st2" d="M467.5,116.9c0-0.3,0.1-0.5,0.2-0.7c0.2-0.2,0.4-0.3,0.7-0.3c0.3,0,0.5,0.1,0.7,0.3c0.2,0.2,0.2,0.4,0.2,0.7
		c0,0.3-0.1,0.5-0.3,0.7c-0.2,0.2-0.4,0.3-0.7,0.3c-0.3,0-0.5-0.1-0.7-0.3S467.5,117.2,467.5,116.9z M469.2,125.2h-1.6v-6.6h1.6
		V125.2z"/>
	<path class="st2" d="M473.4,125.3c-0.9,0-1.6-0.3-2.2-0.9c-0.6-0.6-0.8-1.4-0.8-2.4v-0.2c0-0.7,0.1-1.3,0.4-1.8
		c0.2-0.5,0.6-0.9,1-1.2c0.4-0.3,0.9-0.4,1.5-0.4c0.8,0,1.5,0.3,2,0.9c0.5,0.6,0.7,1.4,0.7,2.4v0.7H472c0.1,0.4,0.2,0.8,0.5,1
		c0.3,0.3,0.6,0.4,1,0.4c0.6,0,1.1-0.2,1.5-0.7l0.8,1c-0.2,0.4-0.6,0.7-1,0.9C474.4,125.2,473.9,125.3,473.4,125.3z M475.2,117.5
		L475.2,117.5l-1.3,0.1l-0.9-0.9l-0.9,0.9l-1.3,0v-0.1l1.7-1.7h1L475.2,117.5z M473.2,119.9c-0.3,0-0.6,0.1-0.8,0.4
		c-0.2,0.2-0.3,0.6-0.4,1h2.3v-0.1c0-0.4-0.1-0.7-0.3-0.9C473.8,120,473.6,119.9,473.2,119.9z M472.3,126.7c0-0.2,0.1-0.4,0.3-0.6
		c0.2-0.2,0.4-0.2,0.7-0.2c0.3,0,0.5,0.1,0.7,0.2c0.2,0.2,0.3,0.4,0.3,0.6c0,0.2-0.1,0.4-0.3,0.6s-0.4,0.2-0.7,0.2
		c-0.3,0-0.5-0.1-0.7-0.2C472.3,127.1,472.3,126.9,472.3,126.7z"/>
	<path class="st2" d="M478.8,117v1.6h1v1.3h-1v3.3c0,0.2,0,0.4,0.1,0.5c0.1,0.1,0.3,0.2,0.5,0.2c0.2,0,0.3,0,0.5,0v1.3
		c-0.3,0.1-0.7,0.2-1,0.2c-1.1,0-1.7-0.6-1.8-1.9v-3.6h-0.9v-1.3h0.9V117H478.8z"/>
	<path class="st2" d="M490.5,125.2h-1.7l-3.3-5.9v5.9h-1.7v-8.9h1.7l3.3,5.9v-5.9h1.7V125.2z"/>
	<path class="st2" d="M495.4,125.2c-0.1-0.2-0.1-0.4-0.2-0.6c-0.4,0.5-0.9,0.7-1.5,0.7c-0.6,0-1.1-0.2-1.5-0.6
		c-0.4-0.4-0.6-0.8-0.6-1.4c0-0.7,0.2-1.2,0.7-1.6c0.5-0.4,1.2-0.6,2.1-0.6h0.8v-0.4c0-0.3-0.1-0.6-0.2-0.7
		c-0.1-0.2-0.4-0.3-0.7-0.3c-0.3,0-0.5,0.1-0.6,0.2c-0.2,0.1-0.2,0.3-0.2,0.6h-1.6c0-0.4,0.1-0.7,0.3-1.1c0.2-0.3,0.5-0.6,0.9-0.8
		s0.9-0.3,1.3-0.3c0.8,0,1.4,0.2,1.8,0.6c0.4,0.4,0.7,1,0.7,1.7v2.9c0,0.6,0.1,1.1,0.2,1.4v0.1H495.4z M494.1,124
		c0.2,0,0.5-0.1,0.7-0.2c0.2-0.1,0.4-0.3,0.5-0.5v-1.1h-0.6c-0.8,0-1.3,0.3-1.3,0.9l0,0.1c0,0.2,0.1,0.4,0.2,0.5
		S493.8,124,494.1,124z"/>
	<path class="st2" d="M499.6,118.6l0.1,0.7c0.4-0.6,1-0.9,1.8-0.9c0.8,0,1.3,0.3,1.6,1c0.4-0.7,1-1,1.8-1c0.7,0,1.2,0.2,1.5,0.6
		s0.5,1,0.5,1.9v4.2h-1.6V121c0-0.4-0.1-0.6-0.2-0.8c-0.1-0.2-0.4-0.3-0.7-0.3c-0.5,0-0.8,0.3-1,0.8l0,4.5h-1.6V121
		c0-0.4-0.1-0.7-0.2-0.8c-0.1-0.2-0.4-0.3-0.7-0.3c-0.5,0-0.8,0.2-1,0.6v4.7h-1.6v-6.6H499.6z"/>
</g>
</svg>
