<svg xmlns="http://www.w3.org/2000/svg" xmlns:xlink="http://www.w3.org/1999/xlink" id="Layer_1" x="0px" y="0px" viewBox="0 0 595.28 841.89" style="enable-background:new 0 0 595.28 841.89;" xml:space="preserve"><style type="text/css">	.st0{fill:none;stroke:#FFD9E5;stroke-width:12;stroke-miterlimit:10;}	.st1{fill:none;stroke:#E6FFE7;stroke-width:23.8679;stroke-miterlimit:10;}	.st2{fill:none;stroke:#E9F6FF;stroke-width:13.1785;stroke-miterlimit:10;}	.st3{fill:none;stroke:#FFFEEB;stroke-width:6.2658;stroke-miterlimit:10;}	.st4{opacity:0.49;fill:#F7D1B7;}	.st5{fill:#FCDBF2;}	.st6{fill:#DEF9DE;}	.st7{fill:#DBEDFC;}</style><circle class="st0" cx="117.17" cy="132.83" r="60.17"></circle><circle class="st1" cx="438.45" cy="393.08" r="119.67"></circle><circle class="st2" cx="146.32" cy="596.53" r="66.08"></circle><circle class="st3" cx="480.92" cy="56.67" r="31.42"></circle><polygon class="st4" points="69.67,362.3 60.03,362.3 60.03,352.67 53.97,352.67 53.97,362.3 44.33,362.3 44.33,368.36  53.97,368.36 53.97,378 60.03,378 60.03,368.36 69.67,368.36 "></polygon><polygon class="st5" points="490.39,703.03 474.84,703.03 474.84,687.47 465.06,687.47 465.06,703.03 449.51,703.03 449.51,712.81  465.06,712.81 465.06,728.36 474.84,728.36 474.84,712.81 490.39,712.81 "></polygon><polygon class="st5" points="127.79,803.3 121.44,796.05 128.69,789.7 124.7,785.14 117.45,791.49 111.1,784.23 106.55,788.22  112.89,795.48 105.64,801.82 109.63,806.38 116.88,800.03 123.23,807.29 "></polygon><polygon class="st5" points="362.63,174.49 356.28,167.24 363.53,160.89 359.54,156.34 352.29,162.68 345.94,155.43 341.38,159.42  347.73,166.67 340.48,173.02 344.47,177.58 351.72,171.23 358.07,178.48 "></polygon><polygon class="st6" points="166.77,591.64 151.21,591.64 151.21,576.08 141.43,576.08 141.43,591.64 125.88,591.64 125.88,601.42  141.43,601.42 141.43,616.97 151.21,616.97 151.21,601.42 166.77,601.42 "></polygon><polygon class="st6" points="501.37,51.78 485.81,51.78 485.81,36.22 476.03,36.22 476.03,51.78 460.48,51.78 460.48,61.56  476.03,61.56 476.03,77.11 485.81,77.11 485.81,61.56 501.37,61.56 "></polygon><polygon class="st7" points="458.9,388.19 443.34,388.19 443.34,372.64 433.57,372.64 433.57,388.19 418.01,388.19 418.01,397.97  433.57,397.97 433.57,413.53 443.34,413.53 443.34,397.97 458.9,397.97 "></polygon><polygon class="st7" points="137.61,127.94 122.06,127.94 122.06,112.39 112.28,112.39 112.28,127.94 96.72,127.94 96.72,137.72  112.28,137.72 112.28,153.28 122.06,153.28 122.06,137.72 137.61,137.72 "></polygon></svg>